<?xml version="1.0" encoding="utf-8"?>
<!-- Generator: Adobe Illustrator 19.0.0, SVG Export Plug-In . SVG Version: 6.00 Build 0)  -->
<svg version="1.1" id="Layer_1" xmlns="http://www.w3.org/2000/svg" xmlns:xlink="http://www.w3.org/1999/xlink" x="0px" y="0px"
	 viewBox="0 0 600 600" style="enable-background:new 0 0 600 600;" xml:space="preserve">
<style type="text/css">
	.st0{fill:#404040;}
	.st1{fill:#FE6600;}
</style>
<path class="st0" d="M169.1,336.4c-17.8-39.6-16-107.1,33.7-154.3c50.4-47.9,128.3-52.2,183-10.5c57.5,44,66.6,115.2,46.6,163.7
	c-34.9-40-78.8-61.5-131.9-61.3C247.3,274.3,203.6,296.1,169.1,336.4z"/>
<path class="st1" d="M298.1,297.5c22.3,0.3,41.2,4.3,59.3,12.1c19.1,8.3,34.9,20.9,48.9,36.1c2.9,3.2,5.3,6.8,8,10.2
	c1.5,1.9,1.5,3.8,0.8,6.2c-5.3,19.2-14.2,36.7-25.8,52.8c-7.4,10.3-16.1,19.4-25.7,27.8c-11.5,10-24.2,18.3-37.9,24.9
	c-7.5,3.6-15.3,6.7-23.4,9c-1.9,0.5-3.4,0.3-5-0.3c-29.7-9.6-54.9-25.9-75.6-49.3c-16.3-18.5-28-39.6-35.2-63.3
	c-1.2-4-0.4-6.9,1.9-9.8c12.3-15.4,26.5-28.7,43.8-38.4c14.7-8.3,30.5-13.5,47.1-16.3C286.4,298.1,293.6,297.3,298.1,297.5z"/>
</svg>
